# xmcd
#
# Track frame offsets:
#  150
#  6538
#  19005
#  37607
#  51731
#  71264
#  84729
#  97253
#  107279
#  119861
#  132412
#  142679
#  154567
#  170260
#  182530
#
# Disc length: 2556 seconds
#
# Revision: 0
# Processed by: cddbd v1.5.2PL0 Copyright (c) Steve Scherf et al.
# Submitted via: AltoMP3_Maker 3.0
#
DISCID=c209fa0f
DTITLE=Dennis Stroughmatt - Talk to My Heart - A Tribute to the Cherokee Cowboys
DYEAR=1900
DGENRE=
TTITLE0=San Antonio Medley
TTITLE1=Heart over Mind
TTITLE2=Touch My Heart
TTITLE3=Under Your Spell Again
TTITLE4=When It's Your Turn to Fall
TTITLE5=A Way to Survive
TTITLE6=I Wish I Could Fall in Love Today
TTITLE7=I'll Be There
TTITLE8=The Twenty-Fourth Hour
TTITLE9=Please Talk to My Heart
TTITLE10=Don't You Ever Get Tired of Hurting Me
TTITLE11=You're Stronger Than Me
TTITLE12=Each Time
TTITLE13=Another Bridge to Burn
TTITLE14=San Antonio Medley Reprise
EXTD=
EXTT0=
EXTT1=
EXTT2=
EXTT3=
EXTT4=
EXTT5=
EXTT6=
EXTT7=
EXTT8=
EXTT9=
EXTT10=
EXTT11=
EXTT12=
EXTT13=
EXTT14=
PLAYORDER=
